<svg width="270" height="270" viewBox="0 0 270 270" fill="none" xmlns="http://www.w3.org/2000/svg">
<path fill-rule="evenodd" clip-rule="evenodd" d="M167.868 150.882C167.746 150.59 167.624 150.289 167.503 149.989C167.259 149.388 167.015 148.787 166.772 148.251C166.505 147.651 166.239 147.067 165.979 146.498C165.669 145.818 165.369 145.161 165.091 144.525L165.018 144.451C159.976 133.49 154.569 122.383 148.869 111.422L148.65 110.984C148.065 109.888 147.481 108.719 146.896 107.55C146.84 107.449 146.783 107.346 146.727 107.244L146.725 107.241C146.049 106.019 145.344 104.743 144.265 103.531C141.927 100.608 138.566 99 134.985 99C131.331 99 128.043 100.608 125.632 103.384C124.536 104.7 123.732 106.088 123.001 107.403C122.416 108.573 121.832 109.742 121.247 110.838L121.028 111.276C115.401 122.237 109.921 133.344 104.879 144.305L104.806 144.451C104.528 145.087 104.228 145.745 103.918 146.424C103.658 146.994 103.392 147.578 103.125 148.178C102.76 148.982 102.394 149.859 102.029 150.809C101.079 153.513 100.787 156.07 101.152 158.701C101.956 164.181 105.61 168.785 110.652 170.831C112.552 171.635 114.525 172 116.571 172C117.155 172 117.886 171.927 118.471 171.854C120.882 171.562 123.366 170.758 125.778 169.369C128.774 167.689 131.624 165.277 134.839 161.77C138.054 165.277 140.977 167.689 143.9 169.369C146.311 170.758 148.796 171.562 151.207 171.854C151.792 171.927 152.523 172 153.107 172C155.153 172 157.199 171.635 159.026 170.831C164.141 168.785 167.722 164.108 168.526 158.701C169.11 156.143 168.818 153.586 167.868 150.882ZM134.912 154.682C130.966 149.713 128.408 145.036 127.532 141.09C127.166 139.409 127.093 137.948 127.312 136.633C127.459 135.463 127.897 134.44 128.482 133.564C129.87 131.591 132.208 130.348 134.912 130.348C137.616 130.348 140.027 131.518 141.342 133.564C141.927 134.44 142.365 135.463 142.512 136.633C142.731 137.948 142.658 139.482 142.292 141.09C141.415 144.963 138.858 149.64 134.912 154.682ZM164.068 158.116C163.557 161.916 160.999 165.204 157.418 166.666C155.665 167.396 153.765 167.616 151.865 167.396C150.038 167.177 148.211 166.593 146.311 165.496C143.681 164.035 141.05 161.77 137.981 158.408C142.804 152.489 145.727 147.082 146.823 142.259C147.334 139.994 147.407 137.948 147.188 136.048C146.896 134.221 146.238 132.541 145.215 131.079C142.95 127.791 139.15 125.891 134.912 125.891C130.674 125.891 126.874 127.864 124.609 131.079C123.586 132.541 122.928 134.221 122.636 136.048C122.343 137.948 122.416 140.067 123.001 142.259C124.097 147.082 127.093 152.563 131.843 158.481C128.847 161.843 126.143 164.108 123.513 165.57C121.613 166.666 119.786 167.25 117.959 167.469C115.986 167.689 114.086 167.396 112.405 166.739C108.825 165.277 106.267 161.989 105.756 158.189C105.537 156.362 105.683 154.536 106.413 152.489C106.566 151.982 106.789 151.474 107.033 150.917C107.141 150.673 107.252 150.419 107.363 150.151C107.875 148.982 108.46 147.74 109.044 146.497L109.117 146.351C114.159 135.463 119.567 124.356 125.193 113.542L125.412 113.103C125.705 112.555 125.997 111.989 126.289 111.422C126.582 110.856 126.874 110.29 127.166 109.742C127.751 108.573 128.408 107.476 129.212 106.527C130.747 104.773 132.793 103.823 135.058 103.823C137.323 103.823 139.369 104.773 140.904 106.527C141.708 107.476 142.365 108.573 142.95 109.742C143.242 110.29 143.535 110.856 143.827 111.422C144.119 111.989 144.411 112.555 144.704 113.103L144.923 113.542C150.477 124.429 155.884 135.537 160.926 146.424V146.497C161.218 147.082 161.492 147.703 161.766 148.324C162.04 148.945 162.314 149.567 162.607 150.151C162.718 150.419 162.83 150.673 162.937 150.917C163.181 151.474 163.404 151.982 163.557 152.489C164.141 154.389 164.36 156.216 164.068 158.116Z" fill="#857F72"/>
</svg>
