<svg width="270" height="270" viewBox="0 0 270 270" fill="none" xmlns="http://www.w3.org/2000/svg">
<path fill-rule="evenodd" clip-rule="evenodd" d="M117.727 142.393C117.668 142.25 117.608 142.103 117.548 141.956C117.429 141.661 117.31 141.367 117.191 141.105C117.06 140.812 116.93 140.526 116.803 140.247C116.651 139.914 116.504 139.592 116.368 139.281L116.333 139.245C113.865 133.881 111.218 128.445 108.429 123.08L108.321 122.865C108.035 122.329 107.749 121.757 107.463 121.185L107.463 121.184C107.435 121.135 107.408 121.085 107.38 121.035L107.379 121.033C107.048 120.435 106.703 119.811 106.175 119.217C105.031 117.787 103.386 117 101.633 117C99.8452 117 98.2358 117.787 97.0555 119.146C96.5191 119.79 96.1257 120.469 95.768 121.113C95.4819 121.685 95.1958 122.257 94.9097 122.794L94.8024 123.008C92.0485 128.373 89.3662 133.809 86.8985 139.174L86.8627 139.245C86.7265 139.557 86.5798 139.879 86.4282 140.211C86.3011 140.49 86.1706 140.776 86.0401 141.069C85.8613 141.463 85.6825 141.892 85.5037 142.357C85.0387 143.68 84.8957 144.932 85.0745 146.219C85.4679 148.902 87.2561 151.155 89.7239 152.156C90.6537 152.55 91.6194 152.729 92.6208 152.729C92.9069 152.729 93.2645 152.693 93.5506 152.657C94.7309 152.514 95.9468 152.121 97.1271 151.441C98.5934 150.618 99.9882 149.438 101.562 147.722C103.135 149.438 104.566 150.618 105.997 151.441C107.177 152.121 108.393 152.514 109.573 152.657C109.859 152.693 110.217 152.729 110.503 152.729C111.504 152.729 112.506 152.55 113.4 152.156C115.903 151.155 117.656 148.866 118.049 146.219C118.335 144.968 118.192 143.716 117.727 142.393ZM101.598 144.252C99.6663 141.82 98.4146 139.532 97.9854 137.6C97.8066 136.778 97.7708 136.062 97.8781 135.419C97.9497 134.846 98.1642 134.346 98.4504 133.917C99.1299 132.951 100.274 132.343 101.598 132.343C102.921 132.343 104.101 132.915 104.745 133.917C105.031 134.346 105.246 134.846 105.317 135.419C105.424 136.062 105.389 136.813 105.21 137.6C104.781 139.496 103.529 141.785 101.598 144.252ZM115.868 145.933C115.617 147.793 114.365 149.402 112.613 150.118C111.755 150.475 110.825 150.583 109.895 150.475C109.001 150.368 108.107 150.082 107.177 149.546C105.889 148.83 104.602 147.722 103.1 146.076C105.46 143.179 106.891 140.533 107.427 138.172C107.678 137.064 107.713 136.062 107.606 135.133C107.463 134.238 107.141 133.416 106.64 132.701C105.532 131.091 103.672 130.161 101.598 130.161C99.5233 130.161 97.6635 131.127 96.5548 132.701C96.0541 133.416 95.7323 134.238 95.5892 135.133C95.4461 136.062 95.4819 137.1 95.768 138.172C96.3045 140.533 97.7708 143.215 100.096 146.112C98.6292 147.757 97.3059 148.866 96.0184 149.581C95.0885 150.118 94.1944 150.404 93.3003 150.511C92.3347 150.618 91.4048 150.475 90.5822 150.154C88.8298 149.438 87.578 147.829 87.3277 145.969C87.2204 145.075 87.2919 144.181 87.6495 143.179C87.7241 142.931 87.8332 142.682 87.9529 142.41C88.0054 142.29 88.0599 142.166 88.1145 142.035C88.3648 141.463 88.6509 140.855 88.937 140.247L88.9728 140.175C91.4405 134.846 94.0871 129.41 96.841 124.117L96.9483 123.903C97.0913 123.634 97.2344 123.357 97.3774 123.08C97.5205 122.803 97.6635 122.526 97.8066 122.257C98.0927 121.685 98.4146 121.149 98.808 120.684C99.559 119.825 100.56 119.36 101.669 119.36C102.778 119.36 103.779 119.825 104.53 120.684C104.924 121.149 105.246 121.685 105.532 122.257C105.675 122.526 105.818 122.803 105.961 123.08C106.104 123.357 106.247 123.634 106.39 123.903L106.497 124.117C109.215 129.446 111.862 134.882 114.33 140.211V140.247C114.473 140.533 114.607 140.837 114.741 141.141C114.875 141.445 115.009 141.749 115.152 142.035C115.207 142.166 115.261 142.29 115.314 142.41C115.434 142.682 115.543 142.931 115.617 143.179C115.903 144.109 116.011 145.003 115.868 145.933ZM145.337 125.977C145.337 127.264 144.3 128.302 143.013 128.302C141.725 128.302 140.688 127.264 140.688 125.977C140.688 124.689 141.689 123.652 143.013 123.652C144.336 123.688 145.337 124.725 145.337 125.977ZM136.253 130.161C135.967 130.161 135.753 130.412 135.753 130.662V131.234C135.753 131.234 134.644 129.804 132.283 129.804C128.385 129.804 125.345 132.772 125.345 136.885C125.345 140.962 128.349 143.966 132.283 143.966C134.68 143.966 135.753 142.5 135.753 142.5V143.108C135.753 143.394 135.967 143.609 136.253 143.609H139.15V130.161H136.253ZM135.753 139.281C135.216 140.068 134.143 140.748 132.856 140.748C130.567 140.748 128.814 139.317 128.814 136.885C128.814 134.453 130.567 133.022 132.856 133.022C134.107 133.022 135.252 133.738 135.753 134.489V139.281ZM141.296 130.161H144.729V143.609H141.296V130.161ZM163.255 129.804C160.895 129.804 159.786 131.234 159.786 131.234V123.688H156.353V143.609H159.25C159.536 143.609 159.75 143.358 159.75 143.108V142.5C159.75 142.5 160.859 143.966 163.22 143.966C167.118 143.966 170.158 140.962 170.158 136.885C170.194 132.808 167.154 129.804 163.255 129.804ZM162.683 140.712C161.36 140.712 160.323 140.032 159.786 139.245V134.453C160.323 133.738 161.467 132.987 162.683 132.987C164.972 132.987 166.724 134.417 166.724 136.849C166.724 139.281 164.972 140.712 162.683 140.712ZM154.958 129.982C154.958 129.982 154.422 129.804 153.384 129.804C152.311 129.804 150.917 130.483 150.273 131.234V130.662C150.273 130.412 150.058 130.161 149.772 130.161H146.875V143.644H150.309V134.238C152.097 132.2 154.958 133.165 154.958 133.165V129.982ZM175.594 142.357L171.839 150.404L175.666 150.44L185 130.197H181.173L177.525 138.316L173.555 130.197H169.55L175.594 142.357Z" fill="#857F72"/>
</svg>
