<svg width="270" height="270" viewBox="0 0 270 270" fill="none" xmlns="http://www.w3.org/2000/svg">
<g clip-path="url(#clip0_12_114)">
<path fill-rule="evenodd" clip-rule="evenodd" d="M113.388 123.921L103.829 118.401C102.787 117.802 101.606 117.488 100.404 117.488C99.2021 117.488 98.0213 117.802 96.9791 118.401L87.4249 123.921C86.3851 124.524 85.5215 125.389 84.9205 126.43C84.3196 127.47 84.0022 128.651 84 129.852V140.888C84.0022 142.09 84.3196 143.27 84.9205 144.311C85.5215 145.352 86.3851 146.217 87.4249 146.82L96.9791 152.335C98.0201 152.937 99.2014 153.253 100.404 153.253C101.606 153.253 102.788 152.937 103.829 152.335L113.388 146.82C114.428 146.217 115.291 145.352 115.892 144.311C116.493 143.27 116.811 142.09 116.813 140.888V129.852C116.811 128.651 116.493 127.47 115.892 126.43C115.291 125.389 114.428 124.524 113.388 123.921ZM111.48 126.92L106.574 129.741C105.406 128.457 103.866 127.57 102.17 127.204V121.572L111.48 126.92ZM100.379 140.173C99.4252 140.173 98.4933 139.89 97.7006 139.36C96.9078 138.831 96.2901 138.078 95.9253 137.197C95.5605 136.316 95.4649 135.347 95.651 134.412C95.8369 133.477 96.296 132.618 96.9701 131.944C97.6443 131.27 98.5031 130.811 99.4382 130.625C100.373 130.439 101.342 130.534 102.223 130.899C103.104 131.264 103.857 131.882 104.386 132.675C104.916 133.467 105.199 134.399 105.199 135.353C105.197 136.63 104.689 137.856 103.785 138.759C102.882 139.663 101.657 140.171 100.379 140.173ZM98.6281 121.547V127.163C96.9196 127.532 95.37 128.429 94.1986 129.726L89.3276 126.925L98.6281 121.547ZM87.5517 130L92.4024 132.8C92.1399 133.62 92.0063 134.476 92.0066 135.337C92.007 136.209 92.1421 137.075 92.4075 137.905L87.5517 140.736V130ZM89.3225 143.816L94.1986 140.99C95.3676 142.272 96.9068 143.159 98.6027 143.527V149.169L89.3225 143.816ZM102.154 149.204V143.532C103.852 143.165 105.394 142.279 106.564 140.995L111.485 143.836L102.154 149.204ZM113.261 140.741L108.355 137.905C108.883 136.255 108.883 134.481 108.355 132.831L113.261 130.005V140.741ZM127.732 124.642H131.476V133.617H141.335V124.642H145.049V146.277H141.335V136.87H131.476V146.277H127.732V124.642ZM148.741 127.491C148.844 127.757 149.001 127.999 149.2 128.203C149.388 128.404 149.617 128.562 149.87 128.67C150.123 128.777 150.396 128.831 150.671 128.828C150.954 128.834 151.234 128.782 151.496 128.676C151.758 128.569 151.995 128.41 152.193 128.208C152.396 128.006 152.556 127.765 152.662 127.499C152.768 127.232 152.82 126.947 152.812 126.661C152.819 126.372 152.767 126.085 152.661 125.817C152.555 125.548 152.396 125.304 152.193 125.098C152.128 125.03 152.059 124.966 151.986 124.908C151.936 124.868 151.885 124.831 151.832 124.796C151.727 124.727 151.616 124.668 151.5 124.62C151.237 124.51 150.955 124.457 150.671 124.464C150.395 124.46 150.121 124.515 149.868 124.624C149.614 124.733 149.386 124.895 149.2 125.098C149.002 125.305 148.846 125.55 148.743 125.817C148.639 126.084 148.589 126.369 148.596 126.656C148.588 126.941 148.637 127.225 148.741 127.491ZM152.558 131.42H148.814V146.277H152.558V131.42ZM154.994 131.42H158.738L162.544 141.695L166.38 131.42H170.094L164.279 146.277H160.809L154.994 131.42ZM171.088 138.879C171.092 141.358 171.856 143.288 173.382 144.668C174.907 146.052 176.991 146.743 179.633 146.743C180.68 146.74 181.726 146.647 182.758 146.464C183.639 146.327 184.5 146.088 185.326 145.754V142.75C184.527 143.065 183.697 143.293 182.85 143.43C181.94 143.593 181.018 143.676 180.094 143.679C176.688 143.675 174.863 142.571 174.62 140.366H186.655V138.569C186.681 137.214 186.38 135.872 185.777 134.657C185.19 133.512 184.272 132.568 183.144 131.948C181.845 131.256 180.388 130.915 178.917 130.959C176.401 130.959 174.473 131.674 173.118 133.095C171.763 134.515 171.088 136.448 171.088 138.879ZM182.857 136.208C183.066 136.678 183.169 137.188 183.159 137.702H174.64C174.636 137.196 174.738 136.696 174.94 136.233C175.142 135.769 175.439 135.354 175.812 135.013C176.67 134.317 177.754 133.965 178.856 134.023C179.97 133.962 181.068 134.302 181.951 134.982C182.339 135.32 182.649 135.738 182.857 136.208Z" fill="#857F72"/>
</g>
<defs>
<clipPath id="clip0_12_114">
<rect width="103" height="36.0246" fill="white" transform="translate(84 117.488)"/>
</clipPath>
</defs>
</svg>
