<svg width="270" height="270" viewBox="0 0 270 270" fill="none" xmlns="http://www.w3.org/2000/svg">
<path fill-rule="evenodd" clip-rule="evenodd" d="M161.983 112.131L142.472 100.864C140.345 99.6425 137.934 99 135.481 99C133.028 99 130.618 99.6425 128.491 100.864L108.99 112.131C106.868 113.361 105.106 115.127 103.879 117.251C102.652 119.375 102.005 121.784 102 124.237V146.762C102.005 149.215 102.652 151.624 103.879 153.748C105.106 155.873 106.868 157.638 108.99 158.868L128.491 170.125C130.616 171.353 133.027 172 135.481 172C137.936 172 140.347 171.353 142.472 170.125L161.983 158.868C164.105 157.638 165.867 155.873 167.094 153.748C168.321 151.624 168.969 149.215 168.973 146.762V124.237C168.969 121.784 168.321 119.375 167.094 117.251C165.867 115.127 164.105 113.361 161.983 112.131ZM158.089 118.251L148.074 124.009C145.691 121.388 142.549 119.578 139.085 118.831V107.336L158.089 118.251ZM135.43 145.302C133.484 145.302 131.582 144.725 129.964 143.644C128.346 142.563 127.085 141.026 126.34 139.228C125.596 137.431 125.401 135.452 125.78 133.544C126.16 131.636 127.097 129.883 128.473 128.507C129.849 127.131 131.602 126.194 133.51 125.814C135.419 125.434 137.397 125.629 139.195 126.374C140.992 127.119 142.529 128.38 143.61 129.997C144.691 131.615 145.268 133.518 145.268 135.463C145.265 138.072 144.228 140.573 142.383 142.417C140.539 144.262 138.038 145.299 135.43 145.302ZM131.857 107.284V118.749C128.37 119.502 125.207 121.331 122.816 123.978L112.874 118.262L131.857 107.284ZM109.249 124.538L119.15 130.254C118.614 131.928 118.341 133.675 118.342 135.432C118.343 137.211 118.619 138.978 119.16 140.672L109.249 146.451V124.538ZM112.864 152.737L122.816 146.969C125.202 149.587 128.344 151.396 131.805 152.147V163.663L112.864 152.737ZM139.054 163.736V152.157C142.52 151.41 145.666 149.6 148.054 146.979L158.099 152.779L139.054 163.736ZM161.724 146.462L151.709 140.672C152.787 137.305 152.787 133.684 151.709 130.316L161.724 124.548V146.462Z" fill="#857F72"/>
</svg>
