<svg width="270" height="270" viewBox="0 0 270 270" fill="none" xmlns="http://www.w3.org/2000/svg">
<path fill-rule="evenodd" clip-rule="evenodd" d="M94.4289 124.195C94.8666 124.292 95.207 124.486 95.4988 124.681L87.912 134.797L95.4988 144.961C95.207 145.156 94.8666 145.301 94.4289 145.447C94.0398 145.593 93.6021 145.642 93.1158 145.642C92.3863 145.642 91.8027 145.545 91.3163 145.302C90.83 145.058 90.3923 144.669 89.906 144.086L83 134.797L89.906 125.556C90.3437 124.973 90.83 124.584 91.3163 124.34C91.8027 124.097 92.3863 124 93.1158 124C93.5535 124 93.9912 124.049 94.4289 124.195ZM95.1098 134.797L102.697 124.681C102.405 124.486 102.064 124.292 101.627 124.195C101.189 124.049 100.751 124 100.314 124C99.5841 124 99.0005 124.097 98.5141 124.34C98.0278 124.584 97.5415 124.973 97.1037 125.556L90.1978 134.797L97.1037 144.086C97.5901 144.669 98.0278 145.058 98.5141 145.302C99.0005 145.545 99.5841 145.642 100.314 145.642C100.8 145.642 101.238 145.593 101.627 145.447C102.064 145.301 102.405 145.156 102.697 144.961L95.1098 134.797ZM122.393 131.052C122.782 131.246 123.171 131.49 123.56 131.781L118.648 137.423L124.29 144.961C123.998 145.156 123.658 145.301 123.22 145.447C122.831 145.593 122.393 145.642 121.907 145.642C121.177 145.642 120.594 145.545 120.107 145.302C119.621 145.058 119.183 144.669 118.697 144.086L115.341 139.611C115.001 139.222 114.758 138.687 114.66 138.104V145.399H110.575V124.146C110.608 124.113 110.687 124.102 110.825 124.083C110.89 124.075 110.969 124.064 111.062 124.049C111.353 124 111.645 124 111.986 124C112.288 124 112.551 124.038 112.845 124.081L112.958 124.097C113.299 124.146 113.59 124.243 113.834 124.438C114.077 124.632 114.32 124.875 114.466 125.167C114.612 125.459 114.709 125.897 114.709 126.383V137.18C114.806 136.645 115.098 136.158 115.487 135.672L118.697 132.025C119.037 131.635 119.378 131.344 119.718 131.101C120.059 130.857 120.496 130.76 120.983 130.76C121.518 130.76 121.956 130.857 122.393 131.052ZM134.162 131.198C134.941 131.538 135.573 132.025 136.059 132.608C136.546 133.192 136.886 133.873 137.178 134.505C137.421 135.283 137.518 136.11 137.518 136.936V137.374V137.909C137.47 138.104 137.47 138.25 137.47 138.444C137.47 138.524 137.455 138.605 137.442 138.677C137.431 138.736 137.421 138.789 137.421 138.833H128.57C128.667 139.952 129.007 140.876 129.591 141.605C130.174 142.335 131.147 142.724 132.46 142.724C132.947 142.724 133.384 142.675 133.773 142.578C134.162 142.481 134.503 142.335 134.795 142.189C135.087 142.043 135.33 141.848 135.573 141.654C135.767 141.459 135.962 141.265 136.157 141.119C136.197 141.179 136.241 141.244 136.289 141.313L136.289 141.314C136.47 141.577 136.693 141.901 136.886 142.286C137.129 142.773 137.275 143.162 137.275 143.453C137.275 143.891 136.983 144.329 136.497 144.669C136.059 145.01 135.476 145.253 134.697 145.496C133.919 145.739 133.044 145.837 131.974 145.837C131.05 145.837 130.126 145.739 129.202 145.496C128.278 145.253 127.5 144.815 126.77 144.232C126.041 143.648 125.457 142.821 125.019 141.8C124.582 140.779 124.339 139.514 124.339 137.958C124.339 136.693 124.533 135.623 124.971 134.699C125.36 133.775 125.895 132.997 126.527 132.414C127.208 131.83 127.937 131.392 128.764 131.101C129.591 130.809 130.418 130.663 131.293 130.663C132.412 130.663 133.384 130.857 134.162 131.198ZM129.202 134.262C128.715 134.797 128.472 135.623 128.472 136.645H133.725C133.725 135.721 133.579 134.894 133.19 134.31C132.849 133.678 132.168 133.386 131.196 133.386C130.369 133.386 129.688 133.678 129.202 134.262ZM151.379 131.49C152.06 132.073 152.497 132.803 152.692 133.727C152.838 134.213 152.886 134.699 152.886 135.234C152.935 135.769 152.935 136.304 152.935 136.839V145.302H148.85V136.985V136.985C148.85 136.547 148.85 136.158 148.801 135.769C148.753 135.38 148.704 135.088 148.558 134.797C148.412 134.505 148.218 134.31 147.926 134.164C147.634 134.019 147.245 133.921 146.71 133.921C145.98 133.921 145.348 134.116 144.813 134.408C144.278 134.748 144.035 135.088 144.035 135.575V145.302H139.901V131.052L140.242 131.003C140.315 131.003 140.388 130.991 140.46 130.979C140.534 130.967 140.606 130.955 140.679 130.955H141.263C141.895 130.955 142.43 131.052 142.917 131.295C143.354 131.538 143.695 131.927 143.792 132.511C144.132 132.073 144.667 131.635 145.348 131.246C146.078 130.857 147.002 130.663 148.218 130.663C149.628 130.663 150.698 130.906 151.379 131.49ZM163.975 141.848L164.267 141.557L164.329 141.661C164.587 142.093 164.774 142.405 165.045 142.675C165.191 143.016 165.288 143.308 165.288 143.599C165.288 143.891 165.191 144.134 164.996 144.378C164.802 144.621 164.51 144.864 164.121 145.058C163.732 145.301 163.245 145.447 162.71 145.593C162.127 145.739 161.543 145.788 160.911 145.788C159.646 145.788 158.674 145.545 157.993 145.058C157.312 144.572 156.826 143.94 156.534 143.162C156.388 142.773 156.291 142.335 156.242 141.897C156.194 141.459 156.193 141.022 156.193 140.584V126.626L156.631 126.578C156.704 126.578 156.777 126.565 156.85 126.553C156.923 126.541 156.996 126.529 157.069 126.529H157.555C157.857 126.529 158.121 126.567 158.415 126.61L158.528 126.626C158.868 126.675 159.16 126.772 159.403 126.967C159.646 127.161 159.89 127.404 160.036 127.696C160.181 127.988 160.279 128.426 160.279 128.912V131.003H164.51V134.067H160.279V140.535C160.279 141.946 160.814 142.627 161.981 142.627C162.224 142.627 162.516 142.578 162.759 142.481L162.759 142.481C163.002 142.383 163.245 142.286 163.44 142.189C163.683 142.092 163.829 141.994 163.975 141.848ZM169.325 131.052C169.665 131.101 169.957 131.198 170.2 131.392C170.443 131.587 170.638 131.83 170.784 132.122C170.929 132.414 171.027 132.851 171.027 133.338V145.496C170.978 145.545 170.784 145.593 170.492 145.593C170.2 145.642 169.908 145.642 169.568 145.642C168.79 145.642 168.157 145.496 167.671 145.156C167.185 144.815 166.942 144.183 166.942 143.162V131.101C166.975 131.067 167.053 131.057 167.192 131.038C167.257 131.029 167.335 131.019 167.428 131.003C167.72 130.955 168.011 130.955 168.352 130.955C168.654 130.955 168.918 130.993 169.211 131.036L169.325 131.052ZM187.319 131.733L182.407 137.423L188 144.961C187.708 145.156 187.368 145.301 186.93 145.447C186.541 145.593 186.103 145.642 185.617 145.642C184.887 145.642 184.304 145.545 183.817 145.302C183.331 145.058 182.893 144.669 182.407 144.086L179.051 139.611C178.711 139.222 178.468 138.687 178.37 138.104V145.399H174.285V124.146C174.318 124.113 174.397 124.102 174.535 124.083V124.083V124.083C174.6 124.075 174.678 124.064 174.772 124.049C175.063 124 175.355 124 175.696 124C175.998 124 176.262 124.038 176.555 124.081L176.668 124.097C177.009 124.146 177.3 124.243 177.544 124.438C177.787 124.632 178.03 124.875 178.176 125.167C178.322 125.459 178.419 125.897 178.419 126.383V137.131C178.516 136.596 178.808 136.11 179.197 135.623L182.407 131.976C182.747 131.587 183.088 131.295 183.428 131.052C183.769 130.809 184.206 130.711 184.693 130.711C185.228 130.711 185.714 130.809 186.103 131.003C186.541 131.198 186.93 131.441 187.319 131.733ZM167.331 124.681C167.72 124.243 168.255 124.049 168.887 124.049C169.471 124.049 170.006 124.243 170.443 124.681C170.881 125.119 171.075 125.654 171.075 126.286C171.075 126.918 170.881 127.453 170.443 127.842C170.006 128.231 169.471 128.426 168.887 128.426C168.255 128.426 167.768 128.231 167.331 127.842C166.893 127.453 166.698 126.918 166.698 126.286C166.698 125.605 166.893 125.119 167.331 124.681ZM101.432 132.608C102.016 132.608 102.551 132.851 102.988 133.24C103.426 133.629 103.621 134.164 103.621 134.845C103.621 135.477 103.426 136.012 102.988 136.402C102.551 136.791 102.016 136.985 101.432 136.985C100.8 136.985 100.313 136.791 99.8758 136.402C99.4381 136.012 99.2436 135.477 99.2436 134.845C99.2436 134.164 99.4381 133.678 99.8758 133.24C100.265 132.803 100.8 132.608 101.432 132.608Z" fill="#857F72"/>
</svg>
