<svg width="270" height="270" viewBox="0 0 270 270" fill="none" xmlns="http://www.w3.org/2000/svg">
<path fill-rule="evenodd" clip-rule="evenodd" d="M138.55 99.6562C140.027 99.9843 141.175 100.64 142.159 101.297L116.568 135.418L142.159 169.703C141.175 170.359 140.027 170.851 138.55 171.344C137.238 171.836 135.762 172 134.121 172C131.661 172 129.692 171.672 128.052 170.851C126.411 170.031 124.935 168.719 123.294 166.75L100 135.418L123.294 104.249C124.771 102.281 126.411 100.969 128.052 100.148C129.692 99.3281 131.661 99 134.121 99C135.598 99 137.074 99.164 138.55 99.6562ZM140.847 135.418L166.438 101.297C165.454 100.64 164.306 99.9843 162.829 99.6562C161.353 99.164 159.876 99 158.4 99C155.939 99 153.971 99.3281 152.33 100.148C150.69 100.969 149.05 102.281 147.573 104.249L124.279 135.418L147.573 166.75C149.213 168.719 150.69 170.031 152.33 170.851C153.971 171.672 155.939 172 158.4 172C160.04 172 161.517 171.836 162.829 171.344C164.306 170.851 165.454 170.359 166.438 169.703L140.847 135.418ZM162.173 128.036C164.141 128.036 165.946 128.856 167.422 130.168C168.899 131.481 169.555 133.285 169.555 135.582C169.555 137.714 168.899 139.519 167.422 140.831C165.946 142.144 164.141 142.8 162.173 142.8C160.04 142.8 158.4 142.144 156.923 140.831C155.447 139.519 154.791 137.714 154.791 135.582C154.791 133.285 155.447 131.645 156.923 130.168C158.236 128.692 160.04 128.036 162.173 128.036Z" fill="#857F72"/>
</svg>
