<svg width="270" height="270" viewBox="0 0 270 270" fill="none" xmlns="http://www.w3.org/2000/svg">
<path fill-rule="evenodd" clip-rule="evenodd" d="M165.433 135.107C165.433 129.934 168.655 125.979 173.803 125.979C178.019 125.979 180.543 128.447 180.981 131.674C180.984 131.697 180.981 131.721 180.975 131.743C180.968 131.765 180.956 131.786 180.941 131.803C180.925 131.821 180.906 131.835 180.885 131.844C180.863 131.854 180.84 131.859 180.817 131.858H177.621C177.583 131.858 177.548 131.845 177.519 131.821C177.49 131.797 177.47 131.765 177.463 131.728C177.105 130.045 175.803 128.954 173.803 128.954C170.582 128.954 169.044 131.638 169.044 135.104C169.044 138.667 170.899 141.23 173.828 141.23C175.849 141.23 177.292 140.048 177.567 138.294C177.572 138.255 177.592 138.22 177.621 138.195C177.651 138.169 177.688 138.155 177.727 138.155H180.874C180.897 138.155 180.919 138.16 180.94 138.169C180.961 138.178 180.979 138.191 180.995 138.207C181.01 138.224 181.022 138.244 181.029 138.265C181.036 138.286 181.039 138.309 181.038 138.332C180.904 139.836 180.223 141.239 179.125 142.274C177.929 143.397 176.244 144.129 173.828 144.129C168.922 144.136 165.433 140.354 165.433 135.107ZM124.045 130.696C120.922 130.696 118.701 133.508 118.701 137.413C118.701 141.458 120.849 144.136 123.997 144.136C125.754 144.136 127.049 143.332 127.779 142.136V143.608C127.779 143.629 127.783 143.65 127.791 143.67C127.8 143.69 127.812 143.708 127.827 143.723C127.842 143.738 127.86 143.75 127.88 143.759C127.9 143.767 127.921 143.771 127.942 143.771H130.813C130.904 143.771 130.977 143.698 130.977 143.389V126.264C130.977 126.356 130.941 126.346 130.888 126.333C130.865 126.327 130.84 126.321 130.813 126.321H127.82C127.777 126.321 127.736 126.338 127.705 126.369C127.675 126.399 127.658 126.44 127.658 126.483V132.551C126.974 131.501 125.797 130.696 124.045 130.696ZM124.826 133.374C126.95 133.374 127.731 135.094 127.731 137.486C127.731 139.78 126.706 141.354 124.729 141.356C123.02 141.356 122.068 139.83 122.068 137.413C122.068 135.094 122.997 133.374 124.826 133.374ZM56.1621 126.321H59.1571C59.2466 126.321 59.3192 126.394 59.3192 126.483V129.478C59.3192 129.568 59.2466 129.64 59.1571 129.64H56.1621C56.0726 129.64 56 129.568 56 129.478V126.483C56 126.394 56.0726 126.321 56.1621 126.321ZM60.8728 126.321H63.8678C63.9573 126.321 64.0299 126.394 64.0299 126.483V129.478C64.0299 129.568 63.9573 129.64 63.8678 129.64H60.8728C60.7833 129.64 60.7107 129.568 60.7107 129.478V126.483C60.7107 126.394 60.7833 126.321 60.8728 126.321ZM68.5772 126.321H65.5822C65.4927 126.321 65.4202 126.394 65.4202 126.483V129.478C65.4202 129.568 65.4927 129.64 65.5822 129.64H68.5772C68.6668 129.64 68.7393 129.568 68.7393 129.478V126.483C68.7393 126.394 68.6668 126.321 68.5772 126.321ZM73.2879 126.321H70.2929C70.2034 126.321 70.1309 126.394 70.1309 126.483V129.478C70.1309 129.568 70.2034 129.64 70.2929 129.64H73.2879C73.3775 129.64 73.45 129.568 73.45 129.478V126.483C73.45 126.394 73.3775 126.321 73.2879 126.321ZM73.2879 131.032H70.2929C70.2034 131.032 70.1309 131.104 70.1309 131.194V134.189C70.1309 134.278 70.2034 134.351 70.2929 134.351H73.2879C73.3775 134.351 73.45 134.278 73.45 134.189V131.194C73.45 131.104 73.3775 131.032 73.2879 131.032ZM70.2929 135.741H73.2879C73.3775 135.741 73.45 135.814 73.45 135.903V138.898C73.45 138.988 73.3775 139.06 73.2879 139.06H70.2929C70.2034 139.06 70.1309 138.988 70.1309 138.898V135.903C70.1309 135.814 70.2034 135.741 70.2929 135.741ZM65.5822 131.032H68.5772C68.6668 131.032 68.7393 131.104 68.7393 131.194V134.189C68.7393 134.278 68.6668 134.351 68.5772 134.351H65.5822C65.4927 134.351 65.4202 134.278 65.4202 134.189V131.194C65.4202 131.104 65.4927 131.032 65.5822 131.032ZM68.5772 135.741H65.5822C65.4927 135.741 65.4202 135.814 65.4202 135.903V138.898C65.4202 138.988 65.4927 139.06 65.5822 139.06H68.5772C68.6668 139.06 68.7393 138.988 68.7393 138.898V135.903C68.7393 135.814 68.6668 135.741 68.5772 135.741ZM63.8678 135.741H60.8728C60.7833 135.741 60.7107 135.814 60.7107 135.903V138.898C60.7107 138.988 60.7833 139.06 60.8728 139.06H63.8678C63.9573 139.06 64.0299 138.988 64.0299 138.898V135.903C64.0299 135.814 63.9573 135.741 63.8678 135.741ZM59.1571 131.032H56.1621C56.0726 131.032 56 131.104 56 131.194V134.189C56 134.278 56.0726 134.351 56.1621 134.351H59.1571C59.2466 134.351 59.3192 134.278 59.3192 134.189V131.194C59.3192 131.104 59.2466 131.032 59.1571 131.032ZM56.1621 135.741H59.1571C59.2466 135.741 59.3192 135.814 59.3192 135.903V138.898C59.3192 138.988 59.2466 139.06 59.1571 139.06H56.1621C56.0726 139.06 56 138.988 56 138.898V135.903C56 135.814 56.0726 135.741 56.1621 135.741ZM73.2879 140.452H70.2929C70.2034 140.452 70.1309 140.525 70.1309 140.614V143.609C70.1309 143.699 70.2034 143.771 70.2929 143.771H73.2879C73.3775 143.771 73.45 143.699 73.45 143.609V140.614C73.45 140.525 73.3775 140.452 73.2879 140.452ZM56.1621 140.452H59.1571C59.2466 140.452 59.3192 140.525 59.3192 140.614V143.609C59.3192 143.699 59.2466 143.771 59.1571 143.771H56.1621C56.0726 143.771 56 143.699 56 143.609V140.614C56 140.525 56.0726 140.452 56.1621 140.452ZM63.8678 140.452H60.8728C60.7833 140.452 60.7107 140.525 60.7107 140.614V143.609C60.7107 143.699 60.7833 143.771 60.8728 143.771H63.8678C63.9573 143.771 64.0299 143.699 64.0299 143.609V140.614C64.0299 140.525 63.9573 140.452 63.8678 140.452ZM65.5822 140.452H68.5772C68.6668 140.452 68.7393 140.525 68.7393 140.614V143.609C68.7393 143.699 68.6668 143.771 68.5772 143.771H65.5822C65.4927 143.771 65.4202 143.699 65.4202 143.609V140.614C65.4202 140.525 65.4927 140.452 65.5822 140.452ZM79.7131 126.321H82.9257C82.9687 126.321 83.0099 126.338 83.0403 126.369C83.0707 126.399 83.0878 126.44 83.0878 126.483V140.817H90.7439C90.7653 140.817 90.7865 140.821 90.8063 140.83C90.826 140.838 90.844 140.85 90.859 140.865C90.8741 140.88 90.886 140.898 90.8941 140.918C90.9021 140.938 90.9062 140.959 90.906 140.981V143.609C90.9062 143.63 90.9021 143.652 90.8941 143.671C90.886 143.691 90.8741 143.709 90.859 143.725C90.844 143.74 90.826 143.752 90.8063 143.76C90.7865 143.768 90.7653 143.773 90.7439 143.773H79.7131C79.67 143.772 79.6288 143.755 79.5984 143.724C79.5681 143.694 79.551 143.652 79.551 143.609V126.483C79.551 126.44 79.5681 126.399 79.5985 126.369C79.6289 126.338 79.6701 126.321 79.7131 126.321ZM97.8423 130.69C94.1814 130.69 91.6683 133.679 91.6683 137.388C91.6683 141.122 94.0106 144.136 98.165 144.136C101.289 144.136 103.242 142.369 103.78 140.237C103.785 140.213 103.786 140.188 103.78 140.164C103.775 140.14 103.764 140.118 103.749 140.098C103.734 140.079 103.714 140.064 103.692 140.053C103.67 140.042 103.645 140.037 103.62 140.037H100.664C100.632 140.038 100.601 140.047 100.575 140.065C100.549 140.083 100.529 140.109 100.518 140.138C100.136 141.03 99.3887 141.575 98.1417 141.575C96.2594 141.575 95.189 140.268 94.9452 138.34H103.853C103.875 138.34 103.896 138.336 103.916 138.328C103.936 138.319 103.954 138.307 103.969 138.292C103.985 138.276 103.997 138.258 104.005 138.238C104.013 138.217 104.017 138.196 104.016 138.174C103.964 133.799 101.82 130.69 97.8423 130.69ZM100.553 136.046H94.989C95.281 134.411 96.1338 133.251 97.8934 133.251C99.4062 133.251 100.456 134.461 100.553 136.046ZM108.93 132.74C109.784 131.397 111.005 130.696 112.714 130.696C115.3 130.696 117.033 132.648 117.033 135.38V143.613C117.033 143.657 117.016 143.698 116.986 143.729C116.955 143.759 116.914 143.777 116.871 143.777H113.877C113.834 143.777 113.792 143.76 113.762 143.729C113.731 143.698 113.714 143.657 113.714 143.613V135.874C113.714 134.532 112.933 133.58 111.542 133.58C110.078 133.573 109.007 134.741 109.007 136.449V143.605C109.007 143.648 108.99 143.69 108.959 143.72C108.929 143.751 108.887 143.768 108.844 143.768H105.85C105.829 143.768 105.808 143.764 105.788 143.756C105.768 143.747 105.75 143.735 105.735 143.72C105.72 143.705 105.708 143.687 105.7 143.667C105.692 143.647 105.688 143.626 105.688 143.605V131.192C105.688 131.171 105.692 131.15 105.7 131.13C105.708 131.11 105.72 131.093 105.735 131.077C105.75 131.062 105.768 131.05 105.788 131.042C105.808 131.034 105.829 131.03 105.85 131.03H108.771C108.792 131.03 108.813 131.034 108.833 131.042C108.853 131.05 108.871 131.062 108.886 131.077C108.901 131.093 108.913 131.11 108.921 131.13C108.929 131.15 108.933 131.171 108.933 131.192L108.93 132.74ZM133.299 131.032H136.292C136.314 131.031 136.336 131.035 136.356 131.042C136.377 131.05 136.395 131.062 136.411 131.077C136.426 131.092 136.439 131.11 136.447 131.131C136.456 131.151 136.46 131.172 136.46 131.194V143.606C136.46 143.628 136.456 143.649 136.448 143.669C136.44 143.689 136.428 143.707 136.412 143.722C136.397 143.737 136.379 143.749 136.359 143.757C136.34 143.765 136.318 143.77 136.297 143.77H133.303C133.26 143.769 133.219 143.752 133.188 143.721C133.158 143.691 133.141 143.649 133.141 143.606V131.194C133.141 131.152 133.158 131.111 133.187 131.081C133.216 131.051 133.257 131.033 133.299 131.032ZM145.632 130.696C143.924 130.696 142.703 131.397 141.849 132.74V131.203C141.849 131.16 141.832 131.118 141.801 131.088C141.771 131.058 141.729 131.041 141.687 131.041H138.766C138.745 131.04 138.723 131.044 138.703 131.053C138.684 131.061 138.666 131.072 138.65 131.088C138.635 131.103 138.623 131.121 138.615 131.14C138.607 131.16 138.602 131.181 138.602 131.203V143.615C138.602 143.658 138.62 143.7 138.65 143.73C138.681 143.761 138.723 143.778 138.766 143.778H141.759C141.803 143.778 141.844 143.761 141.874 143.73C141.905 143.699 141.922 143.658 141.922 143.615V136.46C141.922 134.748 142.999 133.58 144.46 133.58C145.851 133.58 146.632 134.532 146.632 135.874V143.613C146.632 143.657 146.649 143.698 146.68 143.729C146.71 143.759 146.751 143.777 146.795 143.777H149.788C149.831 143.777 149.873 143.76 149.904 143.729C149.934 143.698 149.952 143.657 149.952 143.613V135.38C149.952 132.648 148.218 130.696 145.632 130.696ZM186.036 126.321H183.042C182.999 126.321 182.958 126.338 182.928 126.369C182.897 126.399 182.88 126.44 182.88 126.483V143.608C182.88 143.651 182.897 143.692 182.928 143.723C182.958 143.753 182.999 143.771 183.042 143.771H186.036C186.079 143.771 186.121 143.754 186.152 143.723C186.182 143.693 186.2 143.651 186.2 143.608V126.483C186.199 126.44 186.182 126.399 186.151 126.368C186.12 126.338 186.079 126.321 186.036 126.321ZM196.529 143.771C196.486 143.771 196.445 143.753 196.415 143.723C196.384 143.692 196.367 143.651 196.367 143.608V142.306C195.513 143.454 194.469 144.113 192.706 144.113C189.932 144.113 188.362 142.331 188.362 139.598V131.194C188.362 131.151 188.379 131.11 188.41 131.079C188.44 131.049 188.481 131.032 188.524 131.032H191.494C191.516 131.032 191.537 131.036 191.557 131.044C191.577 131.052 191.595 131.064 191.61 131.079C191.625 131.094 191.637 131.112 191.646 131.132C191.654 131.151 191.658 131.173 191.658 131.194V139.035C191.658 140.496 192.317 141.306 193.733 141.306C195.294 141.306 196.246 140.138 196.246 138.475V131.194C196.246 131.173 196.25 131.151 196.259 131.132C196.267 131.112 196.279 131.094 196.294 131.079C196.309 131.064 196.327 131.052 196.347 131.044C196.367 131.036 196.388 131.032 196.41 131.032H199.397C199.44 131.032 199.482 131.049 199.512 131.079C199.542 131.11 199.559 131.151 199.559 131.194V143.606C199.559 143.649 199.542 143.691 199.512 143.721C199.482 143.752 199.44 143.769 199.397 143.77L196.529 143.771ZM204.922 143.608V142.209C205.653 143.38 206.947 144.136 208.704 144.13C211.852 144.13 214 141.464 214 137.413C214 133.514 211.754 130.696 208.606 130.696C206.874 130.696 205.726 131.501 205.043 132.55V126.49C205.043 126.447 205.026 126.406 204.995 126.376C204.965 126.345 204.924 126.328 204.881 126.328H201.887C201.86 126.328 201.835 126.335 201.813 126.34C201.76 126.354 201.724 126.363 201.724 126.271V143.389C201.724 143.698 201.797 143.771 201.887 143.771H204.758C204.801 143.771 204.843 143.754 204.874 143.723C204.904 143.693 204.922 143.651 204.922 143.608ZM207.849 133.374C209.705 133.374 210.633 135.094 210.633 137.413C210.633 139.83 209.681 141.354 207.972 141.354C206.118 141.354 204.97 139.78 204.97 137.486C204.97 135.167 205.751 133.374 207.849 133.374ZM136.294 126.321H133.299C133.209 126.321 133.137 126.394 133.137 126.483V129.478C133.137 129.568 133.209 129.64 133.299 129.64H136.294C136.383 129.64 136.456 129.568 136.456 129.478V126.483C136.456 126.394 136.383 126.321 136.294 126.321ZM160.731 131.032H163.602C163.645 131.032 163.687 131.049 163.717 131.079C163.748 131.11 163.765 131.151 163.766 131.194V143.793C163.766 145.557 163.203 146.747 162.276 147.601C161.226 148.578 159.616 149.016 157.761 149.016C154.435 149.016 152.357 147.498 151.935 145.171C151.931 145.148 151.932 145.124 151.938 145.101C151.945 145.078 151.956 145.057 151.972 145.039C151.987 145.021 152.006 145.006 152.028 144.997C152.049 144.987 152.073 144.982 152.097 144.982H155.092C155.123 144.983 155.154 144.993 155.18 145.012C155.206 145.03 155.226 145.056 155.238 145.085C155.533 145.816 156.244 146.502 157.713 146.502C159.592 146.502 160.495 145.599 160.495 143.891V141.832C159.764 142.972 158.615 143.765 156.883 143.765C153.735 143.765 151.619 141.178 151.619 137.407C151.619 133.557 153.637 130.69 156.786 130.69C158.542 130.69 159.837 131.449 160.568 132.618V131.194C160.568 131.151 160.585 131.11 160.616 131.079C160.647 131.049 160.688 131.032 160.731 131.032ZM154.987 137.226C154.987 139.431 155.868 140.988 157.634 140.988C159.63 140.988 160.372 139.361 160.372 137.156C160.372 134.98 159.281 133.374 157.517 133.374C155.892 133.374 154.987 134.928 154.987 137.226Z" fill="#857F72"/>
</svg>
