<svg width="270" height="270" viewBox="0 0 270 270" fill="none" xmlns="http://www.w3.org/2000/svg">
<path fill-rule="evenodd" clip-rule="evenodd" d="M99.6781 99H112.207C112.582 99 112.885 99.3036 112.885 99.6781V112.207C112.885 112.582 112.582 112.885 112.207 112.885H99.6781C99.3036 112.885 99 112.582 99 112.207V99.6781C99 99.3036 99.3036 99 99.6781 99ZM119.385 99H131.914C132.288 99 132.592 99.3036 132.592 99.6781V112.207C132.592 112.582 132.288 112.885 131.914 112.885H119.385C119.01 112.885 118.706 112.582 118.706 112.207V99.6781C118.706 99.3036 119.01 99 119.385 99ZM151.615 99H139.086C138.711 99 138.408 99.3036 138.408 99.6781V112.207C138.408 112.582 138.711 112.885 139.086 112.885H151.615C151.99 112.885 152.293 112.582 152.293 112.207V99.6781C152.293 99.3036 151.99 99 151.615 99ZM171.321 99H158.792C158.418 99 158.114 99.3036 158.114 99.6781V112.207C158.114 112.582 158.418 112.885 158.792 112.885H171.321C171.696 112.885 171.999 112.582 171.999 112.207V99.6781C171.999 99.3036 171.696 99 171.321 99ZM171.321 118.707H158.792C158.418 118.707 158.114 119.011 158.114 119.385V131.914C158.114 132.289 158.418 132.592 158.792 132.592H171.321C171.696 132.592 171.999 132.289 171.999 131.914V119.385C171.999 119.011 171.696 118.707 171.321 118.707ZM158.792 138.408H171.321C171.696 138.408 171.999 138.711 171.999 139.086V151.615C171.999 151.989 171.696 152.293 171.321 152.293H158.792C158.418 152.293 158.114 151.989 158.114 151.615V139.086C158.114 138.711 158.418 138.408 158.792 138.408ZM139.086 118.707H151.615C151.99 118.707 152.293 119.011 152.293 119.385V131.914C152.293 132.289 151.99 132.592 151.615 132.592H139.086C138.711 132.592 138.408 132.289 138.408 131.914V119.385C138.408 119.011 138.711 118.707 139.086 118.707ZM151.615 138.408H139.086C138.711 138.408 138.408 138.711 138.408 139.086V151.615C138.408 151.989 138.711 152.293 139.086 152.293H151.615C151.99 152.293 152.293 151.989 152.293 151.615V139.086C152.293 138.711 151.99 138.408 151.615 138.408ZM131.914 138.408H119.385C119.01 138.408 118.706 138.711 118.706 139.086V151.615C118.706 151.989 119.01 152.293 119.385 152.293H131.914C132.288 152.293 132.592 151.989 132.592 151.615V139.086C132.592 138.711 132.288 138.408 131.914 138.408ZM112.207 118.707H99.6781C99.3036 118.707 99 119.011 99 119.385V131.914C99 132.289 99.3036 132.592 99.6781 132.592H112.207C112.582 132.592 112.885 132.289 112.885 131.914V119.385C112.885 119.011 112.582 118.707 112.207 118.707ZM99.6781 138.408H112.207C112.582 138.408 112.885 138.711 112.885 139.086V151.615C112.885 151.989 112.582 152.293 112.207 152.293H99.6781C99.3036 152.293 99 151.989 99 151.615V139.086C99 138.711 99.3036 138.408 99.6781 138.408ZM171.321 158.115H158.792C158.418 158.115 158.114 158.418 158.114 158.793V171.322C158.114 171.696 158.418 172 158.792 172H171.321C171.696 172 171.999 171.696 171.999 171.322V158.793C171.999 158.418 171.696 158.115 171.321 158.115ZM99.6781 158.115H112.207C112.582 158.115 112.885 158.418 112.885 158.793V171.322C112.885 171.696 112.582 172 112.207 172H99.6781C99.3036 172 99 171.696 99 171.322V158.793C99 158.418 99.3036 158.115 99.6781 158.115ZM131.914 158.115H119.385C119.01 158.115 118.706 158.418 118.706 158.793V171.322C118.706 171.696 119.01 172 119.385 172H131.914C132.288 172 132.592 171.696 132.592 171.322V158.793C132.592 158.418 132.288 158.115 131.914 158.115ZM139.086 158.115H151.615C151.99 158.115 152.293 158.418 152.293 158.793V171.322C152.293 171.696 151.99 172 151.615 172H139.086C138.711 172 138.408 171.696 138.408 171.322V158.793C138.408 158.418 138.711 158.115 139.086 158.115Z" fill="#857F72"/>
</svg>
