<svg width="270" height="270" viewBox="0 0 270 270" fill="none" xmlns="http://www.w3.org/2000/svg">
<path fill-rule="evenodd" clip-rule="evenodd" d="M199.397 135.384C198.35 135.849 197.304 136.197 196.084 136.372C193.41 136.721 190.969 136.256 189.109 135.035C185.099 132.594 184.111 127.189 185.622 122.83C187.192 117.89 192.19 116.321 196.723 117.541C201.373 118.762 203 123.004 202.244 128.7C202.095 128.7 201.565 128.698 200.797 128.695H200.795C197.37 128.683 189.22 128.653 188.935 128.7C188.819 131.838 193.003 134.047 197.479 132.652C198.75 132.271 199.496 131.611 199.919 131.237C200.077 131.098 200.19 130.998 200.268 130.967L201.954 133.698C201.547 134.221 200.21 135.035 199.397 135.384ZM193.817 120.621C190.853 120.679 189.284 122.714 188.935 125.562H198.757C198.699 122.539 196.839 120.505 193.817 120.621ZM150.111 119.11C150.111 116.553 152.552 116.727 153.366 117.25C153.831 117.541 156.679 121.319 157.202 122.016L161.038 126.782C161.212 127.015 163.304 129.688 163.537 129.921C163.595 129.921 163.595 129.921 163.595 129.979V117.483L167.256 117.425V128.991C167.256 129.628 167.263 130.278 167.269 130.93V130.93C167.282 132.241 167.295 133.561 167.256 134.803C167.198 136.662 164.99 137.069 163.944 135.907C163.246 135.209 159.352 130.095 158.829 129.397C158.57 129.079 157.985 128.324 157.295 127.437C155.973 125.733 154.27 123.539 153.773 123.004C153.773 123.363 153.774 124.018 153.777 124.852C153.788 128.605 153.81 135.981 153.715 136.314H150.169C150.07 135.818 150.098 124.656 150.108 120.527V120.526V120.517C150.11 119.813 150.111 119.314 150.111 119.11ZM74.6718 117.425C77.1129 117.425 79.0889 117.483 80.6001 118.762C82.8086 120.679 82.8667 127.654 78.6821 128.409L79.7283 130.444C79.9026 130.792 80.077 131.112 80.2513 131.432C80.4257 131.751 80.6001 132.071 80.7744 132.42C81.0069 132.826 82.8086 136.081 82.8086 136.314H78.8565L75.0206 128.758L70.9522 128.7V136.314H67.3488C67.2907 130.385 67.2906 124.457 67.2906 118.529V117.948C67.2906 117.557 67.2906 117.481 67.3261 117.456C67.3345 117.45 67.345 117.447 67.3579 117.443C67.3714 117.439 67.3875 117.434 67.4069 117.425C68.9609 117.503 70.6188 117.476 72.259 117.45H72.2591C73.0726 117.438 73.8818 117.425 74.6718 117.425ZM74.2138 125.572H74.2139H74.214C74.6898 125.566 75.1048 125.562 75.3693 125.562C76.6479 125.562 77.6941 125.387 78.159 124.515C78.6821 123.644 78.5077 122.074 77.9265 121.435C77.2872 120.796 75.8342 120.796 74.73 120.796L70.8941 120.854V125.562C71.4347 125.603 73.0168 125.585 74.2138 125.572ZM127.532 127.742V127.741V127.741C127.997 126.782 128.462 125.823 128.897 124.864C129.246 124.145 129.603 123.433 129.959 122.724C130.552 121.543 131.143 120.367 131.687 119.168C131.749 119.04 131.812 118.91 131.874 118.779C132.742 116.964 133.66 115.042 136.046 115.042C138.432 115.042 139.351 116.964 140.219 118.779C140.281 118.91 140.343 119.04 140.405 119.168C140.679 119.755 141.702 121.855 142.94 124.394V124.394C145.383 129.402 148.658 136.121 148.658 136.314H144.88L143.776 134.047C143.312 133.089 142.836 132.097 142.353 131.092L142.353 131.09L142.352 131.089C141.02 128.315 139.635 125.431 138.313 122.83C137.964 122.074 137.615 121.319 137.209 120.621L136.395 118.936L136.375 118.885C136.278 118.638 136.257 118.587 135.93 118.587C135.116 120.098 134.419 121.435 133.663 123.004C133.427 123.497 133.184 123.996 132.939 124.5C132.46 125.482 131.974 126.481 131.513 127.479C131.276 127.972 131.033 128.472 130.788 128.975L130.788 128.976C130.31 129.958 129.823 130.956 129.362 131.955C128.975 132.691 128.607 133.427 128.258 134.163C128.197 134.285 128.112 134.472 128.015 134.685V134.685C127.74 135.285 127.368 136.099 127.154 136.314H123.376C123.434 136.023 125.759 131.315 126.166 130.618C126.602 129.659 127.067 128.7 127.532 127.742ZM177.615 136.316H177.615C175.827 136.327 174.413 136.335 172.952 135.5C170.395 134.047 169.233 130.967 169.233 126.898C169.291 122.83 170.279 119.808 172.952 118.297C174.463 117.483 176.323 117.425 178.241 117.425C178.385 117.425 178.653 117.423 179.001 117.421C180.622 117.41 183.961 117.387 184.344 117.483V120.679H179.927C179.597 120.679 179.277 120.675 178.966 120.671C175.451 120.625 173.233 120.596 173.127 126.898C173.068 129.688 173.301 132.303 175.8 132.885C176.713 133.105 178.765 133.053 180.659 133.004C182.265 132.964 183.757 132.926 184.344 133.059L184.286 136.314C183.854 136.357 181.237 136.336 179.541 136.322C178.955 136.318 178.479 136.314 178.241 136.314C178.027 136.314 177.819 136.315 177.615 136.316ZM107.044 136.314C106.873 136.314 106.71 136.315 106.555 136.317C105.447 136.329 104.714 136.337 103.848 135.674C103.15 135.151 102.569 134.396 102.569 133.001V125.213C102.569 124.363 102.563 123.506 102.556 122.647V122.647C102.543 120.923 102.531 119.19 102.569 117.483L106.173 117.425V133.001H116.692L114.833 136.314H107.044ZM118.552 117.425H122.272V136.314H118.552V117.425ZM97.5129 135.384C96.4667 135.849 95.4787 136.197 94.2001 136.372C91.5847 136.721 89.1436 136.256 87.2257 135.035C83.2154 132.594 82.2274 127.189 83.7385 122.83C85.3659 117.89 90.306 116.321 94.8394 117.541C99.4889 118.762 101.116 123.004 100.419 128.7C100.27 128.7 99.7412 128.698 98.9743 128.695H98.9729H98.9728C95.5492 128.683 87.3837 128.653 87.0513 128.7C86.9932 131.839 91.1778 134.047 95.5949 132.652C96.9153 132.269 97.6426 131.605 98.0514 131.231C98.2004 131.095 98.307 130.998 98.3847 130.967L100.07 133.698C99.7214 134.221 98.3265 135.035 97.5129 135.384ZM91.9334 120.621C88.9693 120.68 87.4001 122.714 87.0513 125.562H96.8736C96.8154 122.539 95.0137 120.505 91.9334 120.621ZM136.162 124.399L141.858 136.314H130.467L136.162 124.399ZM94.7812 150.262V155.609H96.6992V143.579H94.7812V148.693H90.3642V143.579H88.5043V155.609H90.3642V150.262H94.7812ZM175.858 151.948L181.845 151.076V150.437C181.845 147.996 180.45 146.485 178.125 146.485C175.626 146.485 174.115 148.403 174.115 151.134C174.115 153.982 175.684 155.784 178.474 155.784C179.752 155.784 180.915 155.551 181.612 155.144L181.089 153.808C180.45 154.156 179.52 154.331 178.59 154.331C177.079 154.331 176.033 153.517 175.858 151.948ZM175.742 150.727C175.8 148.868 176.73 147.821 178.125 147.821C179.287 147.821 180.101 148.577 180.101 150.146L175.742 150.727ZM167.663 151.134C167.663 154.389 169.581 155.784 171.615 155.784C172.545 155.784 173.301 155.551 173.882 155.203L173.301 153.866C172.894 154.098 172.371 154.273 171.848 154.273C170.686 154.273 169.523 153.285 169.523 151.134C169.523 148.926 170.627 147.996 171.848 147.996C172.371 147.996 172.894 148.17 173.301 148.403L173.882 147.124C173.359 146.717 172.545 146.485 171.615 146.485C169.581 146.485 167.663 147.879 167.663 151.134ZM164.757 149.623V155.609H166.617V149.449C166.617 147.589 165.397 146.485 162.897 146.485C161.503 146.485 160.34 146.775 159.41 147.124V155.609H161.27V148.228C161.619 148.054 162.2 147.938 162.897 147.938C164.118 147.938 164.757 148.577 164.757 149.623ZM150.925 152.994C150.925 154.738 152.203 155.784 154.761 155.784C156.039 155.784 157.376 155.493 158.015 155.144V149.507C158.015 147.298 156.737 146.485 154.586 146.485C153.366 146.485 152.145 146.775 151.448 147.124L151.913 148.344C152.494 148.054 153.54 147.821 154.412 147.821C155.516 147.821 156.272 148.228 156.272 149.332V149.914C153.598 150.03 150.925 150.495 150.925 152.994ZM152.61 152.936C152.61 151.367 154.47 151.192 156.272 151.134V154.273C155.981 154.389 155.342 154.505 154.761 154.505C153.366 154.505 152.61 153.924 152.61 152.936ZM148.135 149.623V155.609H149.937V149.449C149.937 147.589 148.716 146.485 146.217 146.485C144.822 146.485 143.718 146.775 142.788 147.124V155.609H144.59V148.228C144.997 148.054 145.578 147.938 146.275 147.938C147.496 147.938 148.135 148.577 148.135 149.623ZM139.359 143.985C139.359 144.567 139.882 145.032 140.463 145.032C141.044 145.032 141.568 144.567 141.568 143.985C141.568 143.462 141.044 142.997 140.463 142.997C139.882 142.997 139.359 143.462 139.359 143.985ZM139.533 146.659V155.609H141.393V146.659H139.533ZM134.128 148.693V145.148H138.487V143.579H132.268V155.609H134.128V150.262H138.139V148.693H134.128ZM121.691 151.948L127.619 151.076C127.658 150.844 127.677 150.63 127.677 150.437C127.677 147.996 126.282 146.485 123.957 146.485C121.458 146.485 119.889 148.403 119.889 151.134C119.889 153.982 121.516 155.784 124.306 155.784C125.527 155.784 126.747 155.551 127.444 155.144L126.921 153.808C126.282 154.156 125.352 154.331 124.422 154.331C122.911 154.331 121.865 153.517 121.691 151.948ZM121.574 150.727C121.633 148.868 122.504 147.821 123.899 147.821C125.12 147.821 125.875 148.577 125.933 150.146L121.574 150.727ZM117.041 149.565V155.609H118.843V149.391C118.843 147.589 117.68 146.485 115.762 146.485C114.426 146.485 113.321 146.95 112.798 147.473C112.275 146.95 111.345 146.485 109.892 146.485C108.73 146.485 107.568 146.775 106.696 147.124V155.609H108.497V148.228C108.904 148.054 109.427 147.938 110.009 147.938C111.171 147.938 111.868 148.519 111.868 149.391V155.609H113.67V148.519C114.077 148.17 114.658 147.938 115.356 147.938C116.344 147.938 117.041 148.519 117.041 149.565ZM97.7454 151.134C97.7454 153.808 99.1402 155.784 101.697 155.784C104.255 155.784 105.65 153.808 105.65 151.134C105.65 148.461 104.255 146.485 101.697 146.485C99.1402 146.485 97.7454 148.461 97.7454 151.134ZM99.6052 151.134C99.6052 149.216 100.303 147.938 101.697 147.938C103.092 147.938 103.79 149.216 103.79 151.134C103.79 153.052 103.092 154.331 101.697 154.331C100.303 154.331 99.6052 153.052 99.6052 151.134Z" fill="#857F72"/>
</svg>
