<svg width="270" height="270" viewBox="0 0 270 270" fill="none" xmlns="http://www.w3.org/2000/svg">
<path fill-rule="evenodd" clip-rule="evenodd" d="M106.261 142.582C107.857 139.292 109.452 135.998 110.948 132.708C112.145 130.238 113.369 127.798 114.592 125.364C116.627 121.309 118.653 117.274 120.522 113.161C120.735 112.72 120.949 112.274 121.162 111.826C124.14 105.597 127.293 99 135.481 99C143.668 99 146.822 105.597 149.8 111.826C150.013 112.274 150.226 112.72 150.44 113.161C151.379 115.174 154.892 122.379 159.14 131.093C167.521 148.281 178.762 171.338 178.762 172H165.798L162.008 164.221C160.416 160.932 158.783 157.531 157.125 154.08L157.123 154.074L157.121 154.07C152.548 144.549 147.797 134.655 143.259 125.727C142.063 123.134 140.866 120.541 139.47 118.148L136.678 112.363L136.608 112.188C136.275 111.342 136.205 111.167 135.082 111.167C132.29 116.352 129.896 120.94 127.303 126.325C126.491 128.016 125.658 129.73 124.816 131.459C123.175 134.828 121.505 138.256 119.923 141.683C119.112 143.374 118.278 145.088 117.436 146.816C115.797 150.186 114.125 153.614 112.544 157.041C111.213 159.567 109.951 162.094 108.754 164.62C108.545 165.039 108.253 165.678 107.918 166.411C106.977 168.469 105.7 171.265 104.964 172H92C92.1995 171.003 100.178 154.847 101.574 152.453C103.07 149.163 104.665 145.873 106.261 142.582ZM135.88 131.112L155.426 172H116.333L135.88 131.112Z" fill="#857F72"/>
</svg>
